<mxfile host="app.diagrams.net" modified="2022-02-10T15:37:47.994Z" agent="5.0 (Windows NT 10.0; Win64; x64) AppleWebKit/537.36 (KHTML, like Gecko) Chrome/98.0.4758.82 Safari/537.36" etag="SDUL1_yZb8SWZfEDT9gl" version="16.5.4" type="github" pages="2">
  <diagram name="Without Association Class" id="c4acf3e9-155e-7222-9cf6-157b1a14988f">
    <mxGraphModel dx="1209" dy="674" grid="1" gridSize="10" guides="1" tooltips="1" connect="1" arrows="1" fold="1" page="1" pageScale="1" pageWidth="850" pageHeight="1100" background="none" math="0" shadow="0">
      <root>
        <mxCell id="0" />
        <mxCell id="1" parent="0" />
        <mxCell id="17acba5748e5396b-1" value="frame" style="shape=umlFrame;whiteSpace=wrap;html=1;rounded=0;shadow=0;comic=0;labelBackgroundColor=none;strokeWidth=1;fontFamily=Verdana;fontSize=10;align=center;" parent="1" vertex="1">
          <mxGeometry x="20" y="20" width="820" height="250" as="geometry" />
        </mxCell>
        <mxCell id="J214E7bdzp_kGfigb0vm-8" style="edgeStyle=orthogonalEdgeStyle;rounded=0;orthogonalLoop=1;jettySize=auto;html=1;exitX=0.5;exitY=0;exitDx=0;exitDy=0;endArrow=none;endFill=0;dashed=1;" edge="1" parent="1" source="17acba5748e5396b-20">
          <mxGeometry relative="1" as="geometry">
            <mxPoint x="410" y="90" as="targetPoint" />
          </mxGeometry>
        </mxCell>
        <mxCell id="17acba5748e5396b-20" value="Role" style="swimlane;html=1;fontStyle=0;childLayout=stackLayout;horizontal=1;startSize=26;fillColor=none;horizontalStack=0;resizeParent=1;resizeLast=0;collapsible=1;marginBottom=0;swimlaneFillColor=#ffffff;rounded=0;shadow=0;comic=0;labelBackgroundColor=none;strokeWidth=1;fontFamily=Verdana;fontSize=10;align=center;" parent="1" vertex="1">
          <mxGeometry x="330" y="160" width="160" height="58" as="geometry" />
        </mxCell>
        <mxCell id="17acba5748e5396b-21" value="Description" style="text;html=1;strokeColor=none;fillColor=none;align=left;verticalAlign=top;spacingLeft=4;spacingRight=4;whiteSpace=wrap;overflow=hidden;rotatable=0;points=[[0,0.5],[1,0.5]];portConstraint=eastwest;" parent="17acba5748e5396b-20" vertex="1">
          <mxGeometry y="26" width="160" height="26" as="geometry" />
        </mxCell>
        <mxCell id="J214E7bdzp_kGfigb0vm-7" style="edgeStyle=orthogonalEdgeStyle;rounded=0;orthogonalLoop=1;jettySize=auto;html=1;exitX=0;exitY=0.75;exitDx=0;exitDy=0;entryX=1;entryY=0.5;entryDx=0;entryDy=0;endArrow=none;endFill=0;startArrow=none;" edge="1" parent="1" source="J214E7bdzp_kGfigb0vm-9" target="J214E7bdzp_kGfigb0vm-2">
          <mxGeometry relative="1" as="geometry">
            <Array as="points">
              <mxPoint x="330" y="96" />
            </Array>
          </mxGeometry>
        </mxCell>
        <mxCell id="17acba5748e5396b-30" value="Project" style="swimlane;html=1;fontStyle=0;childLayout=stackLayout;horizontal=1;startSize=26;fillColor=none;horizontalStack=0;resizeParent=1;resizeLast=0;collapsible=1;marginBottom=0;swimlaneFillColor=#ffffff;rounded=0;shadow=0;comic=0;labelBackgroundColor=none;strokeWidth=1;fontFamily=Verdana;fontSize=10;align=center;" parent="1" vertex="1">
          <mxGeometry x="490" y="70" width="160" height="52" as="geometry" />
        </mxCell>
        <mxCell id="17acba5748e5396b-31" value="Name" style="text;html=1;strokeColor=none;fillColor=none;align=left;verticalAlign=top;spacingLeft=4;spacingRight=4;whiteSpace=wrap;overflow=hidden;rotatable=0;points=[[0,0.5],[1,0.5]];portConstraint=eastwest;" parent="17acba5748e5396b-30" vertex="1">
          <mxGeometry y="26" width="160" height="26" as="geometry" />
        </mxCell>
        <mxCell id="J214E7bdzp_kGfigb0vm-1" value="Employee" style="swimlane;html=1;fontStyle=0;childLayout=stackLayout;horizontal=1;startSize=26;fillColor=none;horizontalStack=0;resizeParent=1;resizeLast=0;collapsible=1;marginBottom=0;swimlaneFillColor=#ffffff;rounded=0;shadow=0;comic=0;labelBackgroundColor=none;strokeWidth=1;fontFamily=Verdana;fontSize=10;align=center;" vertex="1" parent="1">
          <mxGeometry x="170" y="70" width="160" height="52" as="geometry" />
        </mxCell>
        <mxCell id="J214E7bdzp_kGfigb0vm-2" value="&amp;nbsp;Name" style="text;html=1;strokeColor=none;fillColor=none;align=left;verticalAlign=top;spacingLeft=4;spacingRight=4;whiteSpace=wrap;overflow=hidden;rotatable=0;points=[[0,0.5],[1,0.5]];portConstraint=eastwest;" vertex="1" parent="J214E7bdzp_kGfigb0vm-1">
          <mxGeometry y="26" width="160" height="26" as="geometry" />
        </mxCell>
        <mxCell id="J214E7bdzp_kGfigb0vm-9" value="*" style="text;html=1;strokeColor=none;fillColor=none;align=center;verticalAlign=middle;whiteSpace=wrap;rounded=0;" vertex="1" parent="1">
          <mxGeometry x="330" y="80" width="30" height="10" as="geometry" />
        </mxCell>
        <mxCell id="J214E7bdzp_kGfigb0vm-13" value="*" style="text;html=1;strokeColor=none;fillColor=none;align=center;verticalAlign=middle;whiteSpace=wrap;rounded=0;" vertex="1" parent="1">
          <mxGeometry x="460" y="80" width="30" height="10" as="geometry" />
        </mxCell>
        <mxCell id="J214E7bdzp_kGfigb0vm-14" value="" style="edgeStyle=orthogonalEdgeStyle;rounded=0;orthogonalLoop=1;jettySize=auto;html=1;exitX=0;exitY=0.75;exitDx=0;exitDy=0;entryX=0.981;entryY=0.068;entryDx=0;entryDy=0;endArrow=none;endFill=0;entryPerimeter=0;" edge="1" parent="1" source="17acba5748e5396b-30" target="J214E7bdzp_kGfigb0vm-13">
          <mxGeometry relative="1" as="geometry">
            <mxPoint x="490" y="109" as="sourcePoint" />
            <mxPoint x="326.96000000000004" y="97.76800000000003" as="targetPoint" />
            <Array as="points">
              <mxPoint x="490" y="96" />
            </Array>
          </mxGeometry>
        </mxCell>
        <mxCell id="J214E7bdzp_kGfigb0vm-15" style="edgeStyle=orthogonalEdgeStyle;rounded=0;orthogonalLoop=1;jettySize=auto;html=1;exitX=0;exitY=1;exitDx=0;exitDy=0;entryX=1;entryY=1;entryDx=0;entryDy=0;endArrow=none;endFill=0;" edge="1" parent="1" source="J214E7bdzp_kGfigb0vm-9" target="J214E7bdzp_kGfigb0vm-13">
          <mxGeometry relative="1" as="geometry">
            <Array as="points">
              <mxPoint x="450" y="90" />
              <mxPoint x="450" y="90" />
            </Array>
          </mxGeometry>
        </mxCell>
      </root>
    </mxGraphModel>
  </diagram>
  <diagram name="With Association Class" id="pEfyJr_HaACk7EiU1ir3">
    <mxGraphModel dx="1209" dy="674" grid="1" gridSize="10" guides="1" tooltips="1" connect="1" arrows="1" fold="1" page="1" pageScale="1" pageWidth="850" pageHeight="1100" background="none" math="0" shadow="0">
      <root>
        <mxCell id="MtdQy9Ms-ZEKSjCM2sKR-0" />
        <mxCell id="MtdQy9Ms-ZEKSjCM2sKR-1" parent="MtdQy9Ms-ZEKSjCM2sKR-0" />
        <mxCell id="MtdQy9Ms-ZEKSjCM2sKR-2" value="frame" style="shape=umlFrame;whiteSpace=wrap;html=1;rounded=0;shadow=0;comic=0;labelBackgroundColor=none;strokeWidth=1;fontFamily=Verdana;fontSize=10;align=center;" vertex="1" parent="MtdQy9Ms-ZEKSjCM2sKR-1">
          <mxGeometry x="20" y="20" width="820" height="170" as="geometry" />
        </mxCell>
        <mxCell id="MtdQy9Ms-ZEKSjCM2sKR-4" value="Role" style="swimlane;html=1;fontStyle=0;childLayout=stackLayout;horizontal=1;startSize=26;fillColor=none;horizontalStack=0;resizeParent=1;resizeLast=0;collapsible=1;marginBottom=0;swimlaneFillColor=#ffffff;rounded=0;shadow=0;comic=0;labelBackgroundColor=none;strokeWidth=1;fontFamily=Verdana;fontSize=10;align=center;" vertex="1" parent="MtdQy9Ms-ZEKSjCM2sKR-1">
          <mxGeometry x="340" y="80" width="160" height="52" as="geometry" />
        </mxCell>
        <mxCell id="MtdQy9Ms-ZEKSjCM2sKR-5" value="Description" style="text;html=1;strokeColor=none;fillColor=none;align=left;verticalAlign=top;spacingLeft=4;spacingRight=4;whiteSpace=wrap;overflow=hidden;rotatable=0;points=[[0,0.5],[1,0.5]];portConstraint=eastwest;" vertex="1" parent="MtdQy9Ms-ZEKSjCM2sKR-4">
          <mxGeometry y="26" width="160" height="26" as="geometry" />
        </mxCell>
        <mxCell id="MtdQy9Ms-ZEKSjCM2sKR-7" value="Project" style="swimlane;html=1;fontStyle=0;childLayout=stackLayout;horizontal=1;startSize=26;fillColor=none;horizontalStack=0;resizeParent=1;resizeLast=0;collapsible=1;marginBottom=0;swimlaneFillColor=#ffffff;rounded=0;shadow=0;comic=0;labelBackgroundColor=none;strokeWidth=1;fontFamily=Verdana;fontSize=10;align=center;" vertex="1" parent="MtdQy9Ms-ZEKSjCM2sKR-1">
          <mxGeometry x="590" y="80" width="160" height="52" as="geometry" />
        </mxCell>
        <mxCell id="MtdQy9Ms-ZEKSjCM2sKR-8" value="Name" style="text;html=1;strokeColor=none;fillColor=none;align=left;verticalAlign=top;spacingLeft=4;spacingRight=4;whiteSpace=wrap;overflow=hidden;rotatable=0;points=[[0,0.5],[1,0.5]];portConstraint=eastwest;" vertex="1" parent="MtdQy9Ms-ZEKSjCM2sKR-7">
          <mxGeometry y="26" width="160" height="26" as="geometry" />
        </mxCell>
        <mxCell id="MtdQy9Ms-ZEKSjCM2sKR-9" value="Employee" style="swimlane;html=1;fontStyle=0;childLayout=stackLayout;horizontal=1;startSize=26;fillColor=none;horizontalStack=0;resizeParent=1;resizeLast=0;collapsible=1;marginBottom=0;swimlaneFillColor=#ffffff;rounded=0;shadow=0;comic=0;labelBackgroundColor=none;strokeWidth=1;fontFamily=Verdana;fontSize=10;align=center;" vertex="1" parent="MtdQy9Ms-ZEKSjCM2sKR-1">
          <mxGeometry x="90" y="80" width="160" height="52" as="geometry" />
        </mxCell>
        <mxCell id="MtdQy9Ms-ZEKSjCM2sKR-10" value="&amp;nbsp;Name" style="text;html=1;strokeColor=none;fillColor=none;align=left;verticalAlign=top;spacingLeft=4;spacingRight=4;whiteSpace=wrap;overflow=hidden;rotatable=0;points=[[0,0.5],[1,0.5]];portConstraint=eastwest;" vertex="1" parent="MtdQy9Ms-ZEKSjCM2sKR-9">
          <mxGeometry y="26" width="160" height="26" as="geometry" />
        </mxCell>
        <mxCell id="MtdQy9Ms-ZEKSjCM2sKR-11" value="*" style="text;html=1;strokeColor=none;fillColor=none;align=center;verticalAlign=middle;whiteSpace=wrap;rounded=0;" vertex="1" parent="MtdQy9Ms-ZEKSjCM2sKR-1">
          <mxGeometry x="310" y="101" width="30" height="10" as="geometry" />
        </mxCell>
        <mxCell id="MtdQy9Ms-ZEKSjCM2sKR-12" value="*" style="text;html=1;strokeColor=none;fillColor=none;align=center;verticalAlign=middle;whiteSpace=wrap;rounded=0;" vertex="1" parent="MtdQy9Ms-ZEKSjCM2sKR-1">
          <mxGeometry x="500" y="101" width="30" height="10" as="geometry" />
        </mxCell>
        <mxCell id="Ohyu3XHM64KrA4qB-Oi--2" value="1" style="text;html=1;strokeColor=none;fillColor=none;align=center;verticalAlign=middle;whiteSpace=wrap;rounded=0;" vertex="1" parent="MtdQy9Ms-ZEKSjCM2sKR-1">
          <mxGeometry x="560" y="101" width="30" height="10" as="geometry" />
        </mxCell>
        <mxCell id="Ohyu3XHM64KrA4qB-Oi--3" value="1" style="text;html=1;strokeColor=none;fillColor=none;align=center;verticalAlign=middle;whiteSpace=wrap;rounded=0;" vertex="1" parent="MtdQy9Ms-ZEKSjCM2sKR-1">
          <mxGeometry x="250" y="101" width="30" height="10" as="geometry" />
        </mxCell>
        <mxCell id="Ohyu3XHM64KrA4qB-Oi--4" style="edgeStyle=orthogonalEdgeStyle;rounded=0;orthogonalLoop=1;jettySize=auto;html=1;exitX=1;exitY=0.5;exitDx=0;exitDy=0;entryX=0;entryY=0.5;entryDx=0;entryDy=0;endArrow=none;endFill=0;" edge="1" parent="MtdQy9Ms-ZEKSjCM2sKR-1" source="MtdQy9Ms-ZEKSjCM2sKR-10" target="MtdQy9Ms-ZEKSjCM2sKR-5">
          <mxGeometry relative="1" as="geometry" />
        </mxCell>
        <mxCell id="Ohyu3XHM64KrA4qB-Oi--5" style="edgeStyle=orthogonalEdgeStyle;rounded=0;orthogonalLoop=1;jettySize=auto;html=1;exitX=1;exitY=0.5;exitDx=0;exitDy=0;entryX=0;entryY=0.5;entryDx=0;entryDy=0;endArrow=none;endFill=0;" edge="1" parent="MtdQy9Ms-ZEKSjCM2sKR-1" source="MtdQy9Ms-ZEKSjCM2sKR-5" target="MtdQy9Ms-ZEKSjCM2sKR-8">
          <mxGeometry relative="1" as="geometry" />
        </mxCell>
      </root>
    </mxGraphModel>
  </diagram>
</mxfile>
